<svg version="1.2" xmlns="http://www.w3.org/2000/svg" viewBox="0 0 16 16" width="16" height="16">
	<title>clipboard-data-svg</title>
	<style>
		.s0 { fill: #ffffff } 
	</style>
	<path id="Layer" class="s0" d="m4 11q0-0.4 0.3-0.7 0.3-0.3 0.7-0.3 0.4 0 0.7 0.3 0.3 0.3 0.3 0.7v1q0 0.4-0.3 0.7-0.3 0.3-0.7 0.3-0.4 0-0.7-0.3-0.3-0.3-0.3-0.7zm6-4q0-0.4 0.3-0.7 0.3-0.3 0.7-0.3 0.4 0 0.7 0.3 0.3 0.3 0.3 0.7v5q0 0.4-0.3 0.7-0.3 0.3-0.7 0.3-0.4 0-0.7-0.3-0.3-0.3-0.3-0.7zm-3 2q0-0.4 0.3-0.7 0.3-0.3 0.7-0.3 0.4 0 0.7 0.3 0.3 0.3 0.3 0.7v3q0 0.4-0.3 0.7-0.3 0.3-0.7 0.3-0.4 0-0.7-0.3-0.3-0.3-0.3-0.7z"/>
	<path id="Layer" class="s0" d="m4 2.5h-1q-0.2 0-0.4 0.1-0.2 0.1-0.3 0.2-0.1 0.1-0.2 0.3-0.1 0.2-0.1 0.4v10.5q0 0.2 0.1 0.4 0.1 0.2 0.2 0.3 0.1 0.1 0.3 0.2 0.2 0.1 0.4 0.1h10q0.2 0 0.4-0.1 0.2-0.1 0.3-0.2 0.1-0.1 0.2-0.3 0.1-0.2 0.1-0.4v-10.5q0-0.2-0.1-0.4-0.1-0.2-0.2-0.3-0.1-0.1-0.3-0.2-0.2-0.1-0.4-0.1h-1v-1h1q0.4 0 0.8 0.2 0.3 0.1 0.6 0.4 0.3 0.3 0.4 0.6 0.2 0.4 0.2 0.8v10.5q0 0.4-0.2 0.8-0.1 0.3-0.4 0.6-0.3 0.3-0.6 0.4-0.4 0.2-0.8 0.2h-10q-0.4 0-0.8-0.2-0.3-0.1-0.6-0.4-0.3-0.3-0.4-0.6-0.2-0.4-0.2-0.8v-10.5q0-0.4 0.2-0.8 0.1-0.3 0.4-0.6 0.3-0.3 0.6-0.4 0.4-0.2 0.8-0.2h1z"/>
	<path id="Layer" fill-rule="evenodd" class="s0" d="m9.5 0q0.3 0 0.6 0.1 0.2 0.1 0.5 0.3 0.2 0.3 0.3 0.5 0.1 0.3 0.1 0.6v1q0 0.3-0.1 0.6-0.1 0.2-0.3 0.5-0.3 0.2-0.5 0.3-0.3 0.1-0.6 0.1h-3q-0.3 0-0.6-0.1-0.2-0.1-0.5-0.3-0.2-0.3-0.3-0.5-0.1-0.3-0.1-0.6v-1q0-0.3 0.1-0.6 0.1-0.2 0.3-0.5 0.3-0.2 0.5-0.3 0.3-0.1 0.6-0.1zm-3 1q-0.1 0-0.2 0-0.1 0.1-0.2 0.1 0 0.1-0.1 0.2 0 0.1 0 0.2v1q0 0.1 0 0.2 0.1 0.1 0.1 0.2 0.1 0 0.2 0.1 0.1 0 0.2 0h3q0.1 0 0.2 0 0.1-0.1 0.2-0.1 0-0.1 0.1-0.2 0-0.1 0-0.2v-1q0-0.1 0-0.2-0.1-0.1-0.1-0.2-0.1 0-0.2-0.1-0.1 0-0.2 0z"/>
</svg>